<?xml version="1.0" standalone="no"?>
<!DOCTYPE svg PUBLIC "-//W3C//DTD SVG 20010904//EN"
 "http://www.w3.org/TR/2001/REC-SVG-20010904/DTD/svg10.dtd">
<svg version="1.0" xmlns="http://www.w3.org/2000/svg"
 width="64.000000pt" height="64.000000pt" viewBox="0 0 64.000000 64.000000"
 preserveAspectRatio="xMidYMid meet">

<g transform="translate(0.000000,64.000000) scale(0.100000,-0.100000)"
fill="#000000" stroke="none">
<path d="M279 578 c-20 -5 -49 -22 -64 -38 -24 -25 -29 -40 -36 -121 -9 -93
-9 -93 22 -140 20 -31 29 -58 27 -76 -3 -25 -10 -30 -88 -54 -46 -15 -86 -32
-88 -37 -2 -6 2 -20 8 -31 10 -20 19 -21 260 -21 241 0 250 1 260 21 6 11 10
25 8 31 -2 5 -42 22 -88 37 -78 24 -85 29 -88 54 -2 18 7 45 27 75 28 45 30
51 24 127 -3 56 -11 88 -24 107 -11 15 -24 39 -29 53 -8 22 -15 25 -52 24 -24
-1 -59 -5 -79 -11z m132 -115 c5 -5 14 -35 19 -67 8 -53 7 -61 -17 -99 -29
-48 -71 -86 -93 -86 -22 0 -64 38 -93 85 -24 38 -25 47 -17 102 5 34 11 65 13
69 7 11 177 7 188 -4z m-126 -273 c3 -5 19 -10 35 -10 16 0 32 5 35 10 12 19
23 10 30 -22 9 -39 -12 -58 -65 -58 -53 0 -74 19 -65 58 7 32 18 41 30 22z"/>
</g>
</svg>
